<?xml version="1.0" encoding="UTF-8" standalone="no"?>
<!-- Created with Inkscape (http://www.inkscape.org/) -->

<svg
   xmlns:dc="http://purl.org/dc/elements/1.1/"
   xmlns:cc="http://creativecommons.org/ns#"
   xmlns:rdf="http://www.w3.org/1999/02/22-rdf-syntax-ns#"
   xmlns:svg="http://www.w3.org/2000/svg"
   xmlns="http://www.w3.org/2000/svg"
   xmlns:sodipodi="http://sodipodi.sourceforge.net/DTD/sodipodi-0.dtd"
   xmlns:inkscape="http://www.inkscape.org/namespaces/inkscape"
   width="70.375801mm"
   height="81.263161mm"
   viewBox="0 0 70.375801 81.263161"
   version="1.1"
   id="svg8"
   inkscape:version="0.92.4 (unknown)"
   sodipodi:docname="monier_logo.svg">
  <defs
     id="defs2" />
  <sodipodi:namedview
     id="base"
     pagecolor="#ffffff"
     bordercolor="#666666"
     borderopacity="1.0"
     inkscape:pageopacity="0.0"
     inkscape:pageshadow="2"
     inkscape:zoom="0.35"
     inkscape:cx="-285.5778"
     inkscape:cy="22.139591"
     inkscape:document-units="mm"
     inkscape:current-layer="layer1"
     showgrid="false"
     fit-margin-top="0"
     fit-margin-left="0"
     fit-margin-right="0"
     fit-margin-bottom="0"
     inkscape:showpageshadow="false"
     inkscape:window-width="1871"
     inkscape:window-height="1025"
     inkscape:window-x="49"
     inkscape:window-y="541"
     inkscape:window-maximized="1" />
  <metadata
     id="metadata5">
    <rdf:RDF>
      <cc:Work
         rdf:about="">
        <dc:format>image/svg+xml</dc:format>
        <dc:type
           rdf:resource="http://purl.org/dc/dcmitype/StillImage" />
        <dc:title></dc:title>
      </cc:Work>
    </rdf:RDF>
  </metadata>
  <g
     inkscape:label="Layer 1"
     inkscape:groupmode="layer"
     id="layer1"
     transform="translate(-43.43115,-73.42794)">
    <g
       id="g4264"
       transform="translate(-457.14782,-243.80883)">
      <path
         inkscape:export-ydpi="96"
         inkscape:export-xdpi="96"
         inkscape:connector-curvature="0"
         id="path4084-4"
         d="m 533.4766,334.8039 a 15.909233,15.909233 0 0 0 -3.60806,0.99557 l 0.16723,2.10644 -2.35481,1.35908 -1.73781,-1.1952 a 15.909233,15.909233 0 0 0 -2.65882,2.64022 l 1.20017,1.74422 -1.35923,2.3553 -2.11237,-0.16756 a 15.909233,15.909233 0 0 0 -0.99013,3.60806 l 1.93343,0.92086 V 351.89 l -1.92156,0.9146 a 15.909233,15.909233 0 0 0 0.96126,3.61544 l 2.12873,-0.16868 1.35987,2.35465 -1.2053,1.75144 a 15.909233,15.909233 0 0 0 2.63461,2.65497 l 1.76346,-1.21476 2.3553,1.36004 -0.16836,2.1276 a 15.909233,15.909233 0 0 0 1.81477,0.59039 c 0.11866,-2.37325 0.22833,-4.56275 0.34426,-6.82633 a 9.3054002,9.3054002 0 0 1 -5.5758,-8.51988 9.3054002,9.3054002 0 0 1 9.30508,-9.30476 9.3054002,9.3054002 0 0 1 9.30525,9.30476 9.3054002,9.3054002 0 0 1 -5.57725,8.51443 c 0.11545,2.26438 0.22416,4.45516 0.34266,6.83049 a 15.909233,15.909233 0 0 0 1.8199,-0.58701 l -0.16916,-2.12905 2.35529,-1.35988 1.75208,1.20563 a 15.909233,15.909233 0 0 0 2.65417,-2.6343 l -1.2138,-1.76442 1.35924,-2.35465 2.12824,0.16836 a 15.909233,15.909233 0 0 0 0.97313,-3.60983 l -1.9323,-0.91973 v -2.71976 l 1.92076,-0.91444 a 15.909233,15.909233 0 0 0 -0.96159,-3.61544 l -2.12744,0.16885 -1.36004,-2.35498 1.2045,-1.74951 a 15.909233,15.909233 0 0 0 -2.63605,-2.6545 l -1.76138,1.21252 -2.35561,-1.35987 0.16884,-2.12376 a 15.909233,15.909233 0 0 0 -3.61095,-0.97409 l -0.91877,1.92878 h -2.71912 z m 0.32822,8.65986 c 0,0 -2.60559,1.88549 -3.48155,4.48771 -0.41625,1.23401 -0.67104,2.37469 -0.81022,3.28898 h 4.29177 z m 3.90197,0 v 8.5853 h -1.95122 l -1.07735,-3.2e-4 h -0.87356 l -4.3915,3.2e-4 c -0.0529,0.59231 -0.0433,1.01514 0.016,1.20034 0.14431,0.50316 0.88799,1.51942 1.8167,2.31248 0.92759,0.79434 2.2716,1.22567 2.26534,1.52952 -0.016,0.60802 -1.13636,21.44313 -1.05105,21.97258 0.30353,1.49938 2.03845,1.86817 3.30228,1.86865 1.26496,0 2.95466,-0.28926 3.30213,-1.86865 0.077,-0.53089 -1.03775,-21.3644 -1.05058,-21.97258 -0.016,-0.30369 1.33695,-0.73598 2.26566,-1.52952 0.92824,-0.7929 1.67352,-1.80868 1.81654,-2.31248 0.1411,-0.49627 -0.024,-2.69587 -0.90033,-5.29793 -0.87644,-2.60222 -3.48171,-4.48755 -3.48171,-4.48755 z m -1.95074,31.3394 a 1.910297,1.910297 0 0 1 1.91002,1.91082 1.910297,1.910297 0 0 1 -1.90986,1.91066 1.910297,1.910297 0 0 1 -1.91082,-1.91082 1.910297,1.910297 0 0 1 1.91066,-1.91066 z"
         style="opacity:1;fill:#cad9f1;fill-opacity:1;fill-rule:evenodd;stroke:none;stroke-width:0.12006966px;stroke-linecap:butt;stroke-linejoin:miter;stroke-opacity:1" />
      <path
         inkscape:export-ydpi="96"
         inkscape:export-xdpi="96"
         inkscape:connector-curvature="0"
         id="path4196-7-25-8-9"
         d="m 535.76679,317.23677 -35.18782,20.31591 v 40.63134 l 35.18782,20.31591 35.18798,-20.31591 v -40.63134 z m 0,8.04045 28.22472,16.2956 v 32.59105 l -28.22472,16.29561 -28.22472,-16.29561 v -32.59105 z"
         style="opacity:1;fill:#37c871;fill-opacity:1;stroke:none;stroke-width:0.09969062;stroke-linecap:butt;stroke-linejoin:bevel;stroke-miterlimit:4;stroke-dasharray:0.19938127, 0.09969064;stroke-dashoffset:0;stroke-opacity:1" />
      <g
         inkscape:export-ydpi="96"
         inkscape:export-xdpi="96"
         transform="translate(2.9382,85.91999)"
         id="g4024">
        <path
           inkscape:connector-curvature="0"
           id="path3999"
           style="font-style:normal;font-variant:normal;font-weight:bold;font-stretch:normal;font-size:medium;line-height:125%;font-family:'Bebas Neue';-inkscape-font-specification:'Bebas Neue Bold';letter-spacing:0px;word-spacing:0px;fill:#1a1a1a;fill-opacity:1;stroke:none;stroke-width:0.03583458px;stroke-linecap:butt;stroke-linejoin:miter;stroke-opacity:1"
           d="m 513.07987,264.89117 h -3.085 v 14.11438 h 1.93569 v -9.98088 l 1.6534,9.98088 h 2.09699 l 1.53242,-10.12203 v 10.12203 h 2.09699 v -14.11438 h -3.085 l -1.51225,10.02121 z" />
        <path
           inkscape:connector-curvature="0"
           id="path4001"
           style="font-style:normal;font-variant:normal;font-weight:bold;font-stretch:normal;font-size:medium;line-height:125%;font-family:'Bebas Neue';-inkscape-font-specification:'Bebas Neue Bold';letter-spacing:0px;word-spacing:0px;fill:#1a1a1a;fill-opacity:1;stroke:none;stroke-width:0.03583458px;stroke-linecap:butt;stroke-linejoin:miter;stroke-opacity:1"
           d="m 522.96026,268.13748 c 0,-1.00817 0.44359,-1.39128 1.14931,-1.39128 0.70572,0 1.14931,0.38311 1.14931,1.39128 v 7.62177 c 0,1.00817 -0.44359,1.39127 -1.14931,1.39127 -0.70572,0 -1.14931,-0.3831 -1.14931,-1.39127 z m -2.21798,7.48062 c 0,2.2583 1.18964,3.54876 3.36729,3.54876 2.17765,0 3.36729,-1.29046 3.36729,-3.54876 v -7.33948 c 0,-2.2583 -1.18964,-3.54876 -3.36729,-3.54876 -2.17765,0 -3.36729,1.29046 -3.36729,3.54876 z" />
        <path
           inkscape:connector-curvature="0"
           id="path4003"
           style="font-style:normal;font-variant:normal;font-weight:bold;font-stretch:normal;font-size:medium;line-height:125%;font-family:'Bebas Neue';-inkscape-font-specification:'Bebas Neue Bold';letter-spacing:0px;word-spacing:0px;fill:#1a1a1a;fill-opacity:1;stroke:none;stroke-width:0.03583458px;stroke-linecap:butt;stroke-linejoin:miter;stroke-opacity:1"
           d="m 533.65663,279.00555 h 2.27846 v -14.11438 h -1.97601 v 8.44847 l -2.27847,-8.44847 h -2.78255 v 14.11438 h 1.99618 v -10.22284 z" />
        <path
           inkscape:connector-curvature="0"
           id="path4005"
           style="font-style:normal;font-variant:normal;font-weight:bold;font-stretch:normal;font-size:medium;line-height:125%;font-family:'Bebas Neue';-inkscape-font-specification:'Bebas Neue Bold';letter-spacing:0px;word-spacing:0px;fill:#1a1a1a;fill-opacity:1;stroke:none;stroke-width:0.03583458px;stroke-linecap:butt;stroke-linejoin:miter;stroke-opacity:1"
           d="m 537.54281,279.00555 h 2.21798 v -14.11438 h -2.21798 z" />
        <path
           inkscape:connector-curvature="0"
           id="path4007"
           style="font-style:normal;font-variant:normal;font-weight:bold;font-stretch:normal;font-size:medium;line-height:125%;font-family:'Bebas Neue';-inkscape-font-specification:'Bebas Neue Bold';letter-spacing:0px;word-spacing:0px;fill:#1a1a1a;fill-opacity:1;stroke:none;stroke-width:0.03583458px;stroke-linecap:butt;stroke-linejoin:miter;stroke-opacity:1"
           d="m 543.58081,266.90751 h 3.83104 v -2.01634 h -6.04902 v 14.11438 h 6.04902 v -2.01634 h -3.83104 v -4.1335 h 3.04467 v -2.01634 h -3.04467 z" />
        <path
           inkscape:connector-curvature="0"
           id="path4009"
           style="font-style:normal;font-variant:normal;font-weight:bold;font-stretch:normal;font-size:medium;line-height:125%;font-family:'Bebas Neue';-inkscape-font-specification:'Bebas Neue Bold';letter-spacing:0px;word-spacing:0px;fill:#c83737;fill-opacity:1;stroke:none;stroke-width:0.03583458px;stroke-linecap:butt;stroke-linejoin:miter;stroke-opacity:1"
           d="m 555.66247,279.00555 c -0.2218,-0.52424 -0.24196,-1.02833 -0.24196,-1.71389 v -2.17764 c 0,-1.47193 -0.36295,-2.54059 -1.47193,-3.00435 0.988,-0.46376 1.45176,-1.41144 1.45176,-2.86321 v -1.10898 c 0,-2.17765 -0.988,-3.24631 -3.28663,-3.24631 h -3.34713 v 14.11438 h 2.21798 v -5.74657 h 0.76621 c 1.00817,0 1.45176,0.48392 1.45176,1.79455 v 2.21797 c 0,1.14932 0.0806,1.37111 0.20164,1.73405 z m -3.60925,-12.09804 c 0.78637,0 1.12915,0.44359 1.12915,1.45176 v 1.39128 c 0,1.12915 -0.50409,1.49209 -1.33079,1.49209 h -0.86702 v -4.33513 z" />
      </g>
    </g>
  </g>
</svg>
